<svg xmlns="http://www.w3.org/2000/svg" xmlns:xlink="http://www.w3.org/1999/xlink" viewBox="0 0 173.21 170.74"><defs><style>.cls-1{fill:url(#linear-gradient);}.cls-2{fill:url(#linear-gradient-2);}.cls-3{fill:url(#linear-gradient-3);}.cls-4{fill:url(#linear-gradient-4);}.cls-5{fill:url(#linear-gradient-5);}.cls-6{fill:url(#linear-gradient-6);}.cls-7{fill:url(#linear-gradient-7);}.cls-8{fill:url(#linear-gradient-8);}.cls-9{fill:url(#linear-gradient-9);}.cls-10{fill:url(#linear-gradient-10);}.cls-11{fill:url(#linear-gradient-11);}.cls-12{fill:url(#linear-gradient-12);}.cls-13{fill:url(#linear-gradient-13);}.cls-14{fill:url(#linear-gradient-14);}.cls-15{fill:url(#linear-gradient-15);}.cls-16{fill:url(#linear-gradient-16);}.cls-17{fill:url(#linear-gradient-17);}.cls-18{fill:url(#linear-gradient-18);}.cls-19{fill:url(#linear-gradient-19);}.cls-20{fill:url(#linear-gradient-20);}.cls-21{fill:url(#linear-gradient-21);}.cls-22{fill:url(#linear-gradient-22);}.cls-23{fill:url(#linear-gradient-23);}.cls-24{fill:url(#linear-gradient-24);}.cls-25{fill:url(#linear-gradient-25);}</style><linearGradient id="linear-gradient" x1="10.02" y1="-13.43" x2="10.02" y2="52.84" gradientTransform="translate(66.95 19.79) rotate(45.74)" gradientUnits="userSpaceOnUse"><stop offset="0" stop-color="#fff"/><stop offset="1" stop-color="#f3ea00"/></linearGradient><linearGradient id="linear-gradient-2" x1="35.09" y1="-13.43" x2="35.09" y2="52.84" gradientTransform="translate(93.17 9.7) rotate(45.74)" xlink:href="#linear-gradient"/><linearGradient id="linear-gradient-3" x1="60.64" y1="-13.43" x2="60.64" y2="52.84" gradientTransform="translate(100.89 -8.6) rotate(45.74)" xlink:href="#linear-gradient"/><linearGradient id="linear-gradient-4" x1="86.19" y1="-13.43" x2="86.19" y2="52.84" gradientTransform="translate(108.61 -26.9) rotate(45.74)" xlink:href="#linear-gradient"/><linearGradient id="linear-gradient-5" x1="111.74" y1="-13.43" x2="111.74" y2="52.84" gradientTransform="translate(116.33 -45.2) rotate(45.74)" xlink:href="#linear-gradient"/><linearGradient id="linear-gradient-6" x1="136.81" y1="-13.43" x2="136.81" y2="52.84" gradientTransform="translate(123.9 -63.15) rotate(45.74)" xlink:href="#linear-gradient"/><linearGradient id="linear-gradient-7" x1="60.64" y1="-13.43" x2="60.64" y2="52.84" gradientTransform="translate(118.5 -1.17) rotate(45.74)" xlink:href="#linear-gradient"/><linearGradient id="linear-gradient-8" x1="86.19" y1="-13.43" x2="86.19" y2="52.84" gradientTransform="translate(126.22 -19.47) rotate(45.74)" xlink:href="#linear-gradient"/><linearGradient id="linear-gradient-9" x1="111.26" y1="-13.43" x2="111.26" y2="52.84" gradientTransform="translate(133.79 -37.42) rotate(45.74)" xlink:href="#linear-gradient"/><linearGradient id="linear-gradient-10" x1="85.71" y1="-14.43" x2="85.71" y2="51.84" gradientTransform="translate(142.62 -12.15) rotate(45.74)" xlink:href="#linear-gradient"/><linearGradient id="linear-gradient-11" x1="35.09" y1="-13.43" x2="35.09" y2="52.84" gradientTransform="translate(55.88 -6.03) rotate(45.74)" xlink:href="#linear-gradient"/><linearGradient id="linear-gradient-12" x1="60.64" y1="-13.43" x2="60.64" y2="52.84" gradientTransform="translate(63.6 -24.33) rotate(45.74)" xlink:href="#linear-gradient"/><linearGradient id="linear-gradient-13" x1="86.67" y1="-13.43" x2="86.67" y2="52.84" gradientTransform="translate(71.46 -42.97) rotate(45.74)" xlink:href="#linear-gradient"/><linearGradient id="linear-gradient-14" x1="112.22" y1="-13.43" x2="112.22" y2="52.84" gradientTransform="translate(79.18 -61.27) rotate(45.74)" xlink:href="#linear-gradient"/><linearGradient id="linear-gradient-15" x1="138.25" y1="-13.43" x2="138.25" y2="52.84" gradientTransform="translate(87.05 -79.91) rotate(45.74)" xlink:href="#linear-gradient"/><linearGradient id="linear-gradient-16" x1="112.22" y1="-13.43" x2="112.22" y2="52.84" gradientTransform="translate(60.88 -68.99) rotate(45.74)" xlink:href="#linear-gradient"/><linearGradient id="linear-gradient-17" x1="86.67" y1="-13.43" x2="86.67" y2="52.84" gradientTransform="translate(53.17 -50.69) rotate(45.74)" xlink:href="#linear-gradient"/><linearGradient id="linear-gradient-18" x1="60.16" y1="-13.43" x2="60.16" y2="52.84" gradientTransform="translate(45.16 -31.7) rotate(45.74)" xlink:href="#linear-gradient"/><linearGradient id="linear-gradient-19" x1="86.67" y1="-14.43" x2="86.67" y2="51.84" gradientTransform="translate(34.5 -58.56) rotate(45.74)" xlink:href="#linear-gradient"/><linearGradient id="linear-gradient-20" x1="35.55" y1="-13.43" x2="35.55" y2="52.84" gradientTransform="translate(74.67 1.51) rotate(45.74)" xlink:href="#linear-gradient"/><linearGradient id="linear-gradient-21" x1="61.08" y1="-13.43" x2="61.08" y2="52.84" gradientTransform="translate(82.38 -16.78) rotate(45.74)" xlink:href="#linear-gradient"/><linearGradient id="linear-gradient-22" x1="86.61" y1="-13.43" x2="86.61" y2="52.84" gradientTransform="translate(90.09 -35.06) rotate(45.74)" xlink:href="#linear-gradient"/><linearGradient id="linear-gradient-23" x1="112.13" y1="-13.43" x2="112.13" y2="52.84" gradientTransform="translate(97.8 -53.34) rotate(45.74)" xlink:href="#linear-gradient"/><linearGradient id="linear-gradient-24" x1="137.66" y1="-13.43" x2="137.66" y2="52.84" gradientTransform="translate(105.51 -71.63) rotate(45.74)" xlink:href="#linear-gradient"/><linearGradient id="linear-gradient-25" x1="163.19" y1="-13.43" x2="163.19" y2="52.84" gradientTransform="translate(113.23 -89.91) rotate(45.74)" xlink:href="#linear-gradient"/></defs><g id="Layer_2" data-name="Layer 2"><g id="Layer_1-2" data-name="Layer 1"><g id="Diamond"><circle class="cls-1" cx="10.02" cy="89.26" r="10.02" transform="translate(-60.9 34.14) rotate(-45.74)"/><circle class="cls-2" cx="35.09" cy="115.29" r="9.04" transform="translate(-71.97 59.96) rotate(-45.74)"/><circle class="cls-3" cx="60.64" cy="115.29" r="9.04" transform="translate(-64.25 78.26) rotate(-45.74)"/><circle class="cls-4" cx="86.19" cy="115.29" r="9.04" transform="translate(-56.54 96.55) rotate(-45.74)"/><circle class="cls-5" cx="111.74" cy="115.29" r="9.04" transform="translate(-48.82 114.85) rotate(-45.74)"/><circle class="cls-6" cx="136.81" cy="115.29" r="9.04" transform="translate(-41.24 132.81) rotate(-45.74)"/><circle class="cls-7" cx="60.64" cy="139.88" r="8.16" transform="translate(-81.86 85.68) rotate(-45.74)"/><circle class="cls-8" cx="86.19" cy="139.88" r="8.16" transform="translate(-74.14 103.98) rotate(-45.74)"/><circle class="cls-9" cx="111.26" cy="139.88" r="8.16" transform="translate(-66.57 121.94) rotate(-45.74)"/><circle class="cls-10" cx="85.71" cy="162.98" r="7.75" transform="translate(-90.84 110.62) rotate(-45.74)"/><circle class="cls-11" cx="35.09" cy="63.23" r="11.06" transform="translate(-34.68 44.23) rotate(-45.74)"/><circle class="cls-12" cx="60.64" cy="63.23" r="11.06" transform="translate(-26.97 62.53) rotate(-45.74)"/><circle class="cls-13" cx="86.67" cy="63.23" r="11.06" transform="translate(-19.1 81.17) rotate(-45.74)"/><circle class="cls-14" cx="112.22" cy="63.23" r="11.06" transform="translate(-11.38 99.47) rotate(-45.74)"/><circle class="cls-15" cx="138.25" cy="63.23" r="11.06" transform="translate(-3.52 118.11) rotate(-45.74)"/><circle class="cls-16" cx="112.22" cy="37.68" r="11.06" transform="translate(6.92 91.75) rotate(-45.74)"/><circle class="cls-17" cx="86.67" cy="37.68" r="11.06" transform="translate(-0.8 73.45) rotate(-45.74)"/><circle class="cls-18" cx="60.16" cy="37.68" r="11.06" transform="translate(-8.81 54.46) rotate(-45.74)"/><circle class="cls-19" cx="86.67" cy="11.61" r="11.61" transform="translate(17.87 65.58) rotate(-45.74)"/><circle class="cls-20" cx="35.55" cy="89.26" r="10.02" transform="translate(-53.19 52.42) rotate(-45.74)"/><circle class="cls-21" cx="61.08" cy="89.26" r="10.02" transform="translate(-45.48 70.71) rotate(-45.74)"/><circle class="cls-22" cx="86.61" cy="89.26" r="10.02" transform="translate(-37.77 88.99) rotate(-45.74)"/><circle class="cls-23" cx="112.13" cy="89.26" r="10.02" transform="translate(-30.05 107.27) rotate(-45.74)"/><circle class="cls-24" cx="137.66" cy="89.26" r="10.02" transform="translate(-22.34 125.56) rotate(-45.74)"/><circle class="cls-25" cx="163.19" cy="89.26" r="10.02" transform="translate(-14.63 143.84) rotate(-45.74)"/></g></g></g></svg>